<svg display="block" viewBox="0 0 320 270" xmlns="http://www.w3.org/2000/svg"><path d="m0 0h320v270c-34.98 0-69.96 0-106 0 0-1.32 0-2.64 0-4-.88751953-.14888672-.88751953-.14888672-1.79296875-.30078125-2.6279026-.83255675-3.65908793-1.87530867-5.51953125-3.88671875-2.83034314-2.96367837-5.75339407-5.65218829-8.9140625-8.2578125-2.36903281-2.07681731-4.5455624-4.3268124-6.7734375-6.5546875-2.56774508-2.43339048-5.16010233-4.84022679-7.75-7.25-4.4857861-4.18510841-8.94137604-8.38111557-13.25-12.75-4.46237731-4.52164987-9.21197781-8.64941797-14.06640625-12.7421875-3.85846386-3.29470348-7.21111303-6.65214298-10.43359375-10.56640625-2.03633448-2.29617924-4.31096062-4.20724484-6.69140625-6.13671875-2.39810518-2.06143815-4.57383852-4.31678029-6.80859375-6.5546875-2.56757565-2.43356857-5.16010272-4.84022716-7.75-7.25-5.20728886-4.85824957-10.32182781-9.77762898-15.3203125-14.8515625-1.87423131-1.84387939-3.80719125-3.56473589-5.8046875-5.2734375-4.41789637-3.78044439-8.45111611-7.91959348-12.51171875-12.07421875-2.56143986-2.59464485-2.56143986-2.59464485-5.4453125-4.7578125-.71542969-.59167969-1.43085937-1.18335938-2.16796875-1.79296875 0-.66 0-1.32 0-2-.99-.33-1.98-.66-3-1 0-.66 0-1.32 0-2-.58265625-.25394531-1.1653125-.50789062-1.765625-.76953125-2.47625533-1.36367208-4.03958126-2.87272078-5.984375-4.91796875-2.57993236-2.6510702-5.17880963-5.17036567-8-7.5625-4.30448233-3.68710638-8.25546017-7.70011751-12.21386719-11.75097656-2.741861-2.85967789-2.741861-2.85967789-6.03613281-4.99902344 0-.66 0-1.32 0-2-.66 0-1.32 0-2 0-1.72723579-1.6285366-3.3646094-3.28262412-5-5-3.9682352-4.07241322-8.00971406-7.93191269-12.3671875-11.5859375-2.32999913-2.01784614-4.45414792-4.23539792-6.6328125-6.4140625-1.485-.99-1.485-.99-3-2 .433125 1.04800781.433125 1.04800781.875 2.1171875.37125.91007812.7425 1.82015625 1.125 2.7578125.37125.90492187.7425 1.80984375 1.125 2.7421875.875 2.3828125.875 2.3828125.875 4.3828125h2c.81690177 2.22763988 1.62861872 4.4569486 2.4375 6.6875.23009766.62583984.46019531 1.25167969.69726562 1.89648438 1.24577105 3.4484387 2.26327887 6.79736352 2.86523438 10.41601562h2c1.42781893 3.24504302 2.80626169 6.40368859 3.90234375 9.77734375 1.24083722 3.64302744 2.72804567 7.14475623 4.28515625 10.66015625.30534668.69375732.61069336 1.38751465.92529297 2.10229492 3.64425703 8.2373644 7.49236632 16.37925924 11.33251953 24.52661133 1.88414396 4.05598654 3.65387261 8.03836358 4.9921875 12.30859375 1.58041822 5.01962377 3.84672714 9.67550195 6.0859375 14.4296875 1.62332601 3.51291184 3.07300426 7.06462606 4.48046875 10.66796875 1.12692068 2.85928501 2.30814958 5.69288729 3.49609375 8.52734375 1.61521961 3.87052625 3.22885462 7.74143147 4.8125 11.625.32613281.79664063.65226562 1.59328125.98828125 2.4140625.69921875 1.9609375.69921875 1.9609375.69921875 3.9609375h2c.31130859.93005859.31130859.93005859.62890625 1.87890625 2.24827579 6.46261702 4.92698165 12.59901348 7.86669922 18.76611328 1.53114244 3.22541905 2.98746291 6.43066036 4.19189453 9.79248047 1.27224396 3.45323362 2.79456749 6.57245982 4.54296875 9.80078125.76953125 1.76171875.76953125 1.76171875.76953125 4.76171875-32.01 0-64.02 0-97 0 0-89.1 0-178.2 0-270zm240.6875 8c-.45439453.66773438-.90878906 1.33546875-1.37695312 2.0234375-1.11871938 1.64863908-2.21667726 3.31133185-3.31054688 4.9765625 2.13725057 2.37458431 3.92618528 3.57771868 6.9140625 4.68359375.75667969.28576904 1.51335937.57153809 2.29296875.8659668.79792969.29302002 1.59585938.58604004 2.41796875.88793945 1.63862071.61820396 3.27665034 1.23797708 4.9140625 1.859375.77891602.29455078 1.55783203.58910156 2.36035156.89257812 2.40203961.92686792 4.75709752 1.93205576 7.10058594 2.99804688 3.09290577 1.40309335 6.18712554 2.79524589 9.3125 4.125.80050781.34675781 1.60101563.69351563 2.42578125 1.05078125 2.64462927.74451567 3.78186671.82786921 6.26171875-.36328125 1.65008363-2.150548 1.65008363-2.150548 2.875-4.8125.67675781-1.30904297.67675781-1.30904297 1.3671875-2.64453125 1.01112371-2.47122985 1.01112371-2.47122985.0234375-4.56762695-1.42015595-2.21652813-2.43282089-2.94181371-4.7578125-4.1237793-.6997998-.36279053-1.39959961-.72558105-2.12060547-1.09936523-1.11979248-.55796265-1.11979248-.55796265-2.26220703-1.12719727-.76070801-.3906665-1.52141602-.78133301-2.30517578-1.18383789-2.26691947-1.1601799-4.54151796-2.30353191-6.81982422-3.44116211-.63550781-.31855957-1.27101563-.63711914-1.92578125-.96533203-2.57950421-1.29189693-5.16208308-2.57622839-7.75390625-3.84326172-2.3203125-1.19140625-2.3203125-1.19140625-5.3203125-3.19140625-5.76334965-1.3763223-7.51241833 2.70239317-10.3125 7zm-6.6875 15c.47223607 3.98002161.95394315 7.95883923 1.4375 11.9375.13470703 1.13630859.26941406 2.27261719.40820312 3.44335938.13212891 1.07958984.26425782 2.15917968.40039063 3.27148437.12044678 1.00023193.24089355 2.00046387.36499023 3.03100586.15109888 2.2722594.15109888 2.2722594 1.38891602 3.31665039.21547984 1.69241461.37099958 3.39255698.5 5.09375.0825 1.02996094.165 2.05992188.25 3.12109375.16666667 2.19010417.33333333 4.38020833.5 6.5703125.0825 1.02996094.165 2.05992188.25 3.12109375.0721875.95197266.144375 1.90394531.21875 2.88476562.04858663 2.18036623.04858663 2.18036623 1.28125 3.20898438.20999945 1.95416157.36832634 3.91400299.5 5.875.22347251 3.31218188.44792065 5.96876196 1.5 9.125.19946801 1.46726731.36247866 2.93969866.5 4.4140625.12375 1.26457031.12375 1.26457031.25 2.5546875.16739552 1.77857739.33405589 3.55722411.5 5.3359375.12375 1.26070312.12375 1.26070312.25 2.546875.0721875.77166504.144375 1.54333008.21875 2.33837891.10156235 1.82708882.10156235 1.82708882 1.28125 2.81005859.22753357 1.7037908.39473238 3.41573499.53515625 5.12890625.08701172 1.03447266.17402344 2.06894531.26367187 3.13476563.13051758 1.63291992.13051758 1.63291992.26367188 3.29882812.13631836 1.6387207.13631836 1.6387207.27539062 3.31054688.22473749 2.70867804.44525027 5.41763478.66210938 8.12695312h2c-.01160156.83402344-.02320313 1.66804688-.03515625 2.52734375-.55171509 11.00803943-.55171509 11.00803943 2.03515625 21.47265625.31120284 2.55877893.50964666 5.11851612.71875 7.6875.15261047 2.33518455.15261047 2.33518455 1.28125 4.3125.36624101 2.69072751.68666223 5.370869.97265625 8.0703125.08736923.79622772.17473846 1.59245544.26475525 2.41281128.27863171 2.54691453.55191877 5.09437065.8250885 7.64187622.18779972 1.72529869.37594638 3.45055966.56445312 5.17578125.46171151 4.23264541.91863003 8.46578423 1.37304688 12.69921875 3.50021225-.57219039 6.94060086-1.17429333 10.375-2.0625 1.19625-.309375 2.3925-.61875 3.625-.9375 0-.66 0-1.32 0-2 .87011719-.05607422.87011719-.05607422 1.7578125-.11328125 5.15511995-.43384673 8.61686754-1.47769794 13.2421875-3.88671875 2.21317108-.56779857 4.43570887-1.01216239 6.67578125-1.4609375 3.59120805-.83291884 6.90464401-2.1712326 10.32421875-3.5390625-1.23416987-6.82423338-2.8915995-13.39367844-5-20-.66 0-1.32 0-2 0-.14501953-1.91232422-.14501953-1.91232422-.29296875-3.86328125-.60240741-5.39845659-2.20701723-10.22552163-4.01953125-15.32421875-.64161076-1.86119205-1.28093457-3.72317405-1.91796875-5.5859375-.46092041-1.34529785-.46092041-1.34529785-.93115234-2.71777344-1.44624939-4.32779809-2.6543803-8.71074277-3.87744141-13.10644531-2.61089299-9.24425933-5.33961763-18.46462619-9.1640625-27.2890625-.88488289-2.34667473-1.36486659-4.64651326-1.796875-7.11328125-.66 0-1.32 0-2 0-.04898438-.56847656-.09796875-1.13695313-.1484375-1.72265625-.48299331-4.98815504-1.32794413-9.50333953-2.8515625-14.27734375-.66 0-1.32 0-2 0-.33-3.3-.66-6.6-1-10-.66 0-1.32 0-2 0-.04898437-.58007812-.09796875-1.16015625-.1484375-1.7578125-.44805655-4.68141842-1.1495835-8.81704209-2.8515625-13.2421875-.66 0-1.32 0-2 0-.03738281-.60585938-.07476562-1.21171875-.11328125-1.8359375-.51382055-10.61077905-.51382055-10.61077905-5.359375-19.57421875-1.80471935-1.08118722-3.55819482-1.8514129-5.52734375-2.58984375-.6909375-.29519531-1.381875-.59039063-2.09375-.89453125-3.63986004-1.48718162-5.86860015-2.10546875-9.90625-2.10546875 0-.66 0-1.32 0-2-.99 0-1.98 0-3 0zm56 2c-.86646667 1.43011973-1.71781829 2.86940619-2.5625 4.3125-.47566406.80050781-.95132812 1.60101563-1.44140625 2.42578125-1.33877475 2.35330354-1.33877475 2.35330354.00390625 5.26171875h7v2c1.19496094.18175781 1.19496094.18175781 2.4140625.3671875 8.94117857 1.414055 8.94117857 1.414055 13.0859375 2.8203125 2.68103708.87133705 3.90253023.81152683 6.5-.1875-2.12228046-2.3580894-4.46207416-3.97513365-7.11328125-5.69140625-4.87136716-3.37869151-9.69277638-7.11465138-13.88671875-11.30859375-1.32 0-2.64 0-4 0zm-179 37c.825.928125 1.65 1.85625 2.5 2.8125 3.5655677 4.12587119 6.65732608 8.55163426 9.765625 13.02734375.57234375.71285156 1.1446875 1.42570312 1.734375 2.16015625h2c.2475.53625.495 1.0725.75 1.625 1.55652537 2.9573982 3.28435673 5.67224051 5.25 8.375h2c.23203125.51691406.4640625 1.03382812.703125 1.56640625 4.61277 8.65589069 10.0904838 16.3282948 19.484375 19.74609375 4.90757088 1.38211017 9.72352966 2.38216178 14.8125 2.6875v2c.87011719.18175781.87011719.18175781 1.7578125.3671875 5.45847103 1.17095913 10.67448131 2.50552686 15.8046875 4.7578125 2.63578544.94617939 4.65917661 1.03376134 7.4375.875v2c.56847656.10957031 1.13695312.21914062 1.72265625.33203125 3.85055533.79068165 7.22025362 1.64292922 10.83984375 3.23046875 3.96043194 1.65618063 7.18178876 2.064192 11.4375 2.4375-2.82734191-2.31327974-5.69594988-4.56720469-8.625-6.75-.56976563-.42796875-1.13953125-.8559375-1.7265625-1.296875-1.76393242-1.2034005-1.76393242-1.2034005-4.6484375-.953125 0-.66 0-1.32 0-2-1.87341274-1.37566919-1.87341274-1.37566919-4.3203125-2.72265625-.92200195-.53471924-1.84400391-1.06943848-2.79394531-1.62036133-1.49031739-.8511438-1.49031739-.8511438-3.01074219-1.71948242-7.94947572-4.6038469-15.74625686-9.33258382-23.390625-14.42578125-2.28443993-1.68499179-2.28443993-1.68499179-4.484375-1.51171875 0-.66 0-1.32 0-2-.55429688-.26554687-1.10859375-.53109375-1.6796875-.8046875-.72445312-.35320312-1.44890625-.70640625-2.1953125-1.0703125-.71929687-.34804687-1.43859375-.69609375-2.1796875-1.0546875-1.9453125-1.0703125-1.9453125-1.0703125-3.9453125-3.0703125-.99 0-1.98 0-3 0 0-.66 0-1.32 0-2-1.64451775-1.26067853-1.64451775-1.26067853-3.8125-2.46875-.82129395-.48436523-1.64258789-.96873047-2.48876953-1.46777344-.89058106-.51594726-1.78116211-1.03189453-2.69873047-1.56347656-1.83156849-1.07669851-3.66228584-2.15484608-5.4921875-3.234375-.92264648-.54333984-1.84529297-1.08667969-2.79589844-1.64648438-4.6803264-2.79437565-9.27729131-5.72119817-13.86035156-8.671875-3.17394059-2.21303396-3.17394059-2.21303396-6.8515625-2.94726562 0-.66 0-1.32 0-2-1.32-.33-2.64-.66-4-1zm-8 1c.35318483 5.2612361 1.08069203 9.61601088 3.22265625 14.4921875.87783816 2.83202061 1.07344794 5.58121976 1.34594727 8.52246094.41167505 3.66757552 1.04175869 6.52252442 2.43139648 9.98535156 4.34773119 3.0752245 8.82887985 3.98168711 14 5 2.29306396.59884151 4.58487238 1.20252546 6.875 1.8125 1.70659648.40325583 3.41427872.80211773 5.125 1.1875-1.52914379-3.40510369-3.53334679-6.10165188-5.875-9-.67804688-.845625-1.35609375-1.69125-2.0546875-2.5625-1.92804979-2.27000579-3.96389786-4.33534074-6.0703125-6.4375-1.04557728-1.27171995-2.06573307-2.56467212-3.0625-3.875-.59167969-.76957031-1.18335937-1.53914063-1.79296875-2.33203125-.70769531-.92167969-1.41539063-1.84335938-2.14453125-2.79296875-1.95175156-2.52599962-3.91186855-5.04533843-5.875-7.5625-.48863525-.63212402-.97727051-1.26424805-1.48071289-1.91552734-1.19132304-1.52591721-2.41482049-3.02661793-3.64428711-4.52197266-.33 0-.66 0-1 0zm-83 11c1.10671889 3.32015668 1.92462173 4.02793492 4.546875 6.20703125 4.36043114 3.70131878 8.54364144 7.55572879 12.703125 11.48046875.73726318.69407959 1.47452637 1.38815918 2.23413086 2.10327148 4.93501827 4.66469448 9.76710415 9.41667546 14.53686523 14.24951172 3.28038691 3.3084783 6.67679099 6.41258001 10.22900391 9.42456055 1.80190579 1.58068967 3.46082589 3.24847586 5.125 4.97265625 2.25212763 2.79534557 2.25212763 2.79534557 4.625 2.5625.3403125.86625.3403125.86625.6875 1.75 1.66011639 2.84591381 3.70437957 4.24841921 6.3125 6.25 1.1580291 1.15381809 2.31469766 2.30904639 3.46313477 3.47241211 3.91535054 3.89171539 8.0005983 7.61358079 12.03491211 11.38110351 4.30820033 4.03773036 8.53219776 8.13893216 12.67285156 12.34863282 1.85979061 1.82801629 3.78620532 3.53946514 5.76660156 5.23535156 5.19070861 4.46236807 10.04618285 9.30862088 14.69921875 14.328125 1.30386253 1.45810545 1.30386253 1.45810545 3.36328125 1.234375v2c1.5507907 1.56864082 1.5507907 1.56864082 3.5625 3.1875 2.7628868 2.34529758 5.40429757 4.72079405 7.9375 7.3125 2.37042357 2.41332717 4.80736308 4.67271853 7.375 6.875 3.0096753 2.59134205 5.83588616 5.29754783 8.625 8.125 2.70803565 2.74500542 5.44169249 5.3727091 8.375 7.875 3.90861752 3.34690003 7.50473761 6.97487766 11.11523438 10.63476562 3.05846617 3.08413163 6.20524429 5.96695365 9.54101562 8.74414063 2.29598235 1.9479212 4.36557579 4.09284396 6.46875 6.24609375 4.89363817 4.98792793 9.83052678 9.81966659 15.14453125 14.359375 1.83295724 1.62072009 3.53203916 3.31800911 5.23046875 5.078125 2.25212763 2.79534557 2.25212763 2.79534557 4.625 2.5625.12117187-.85722656.24234375-1.71445312.3671875-2.59765625.87267269-5.9543129 1.85999872-11.64069896 3.6328125-17.40234375 1.83506692-6.68079052 2.59209728-13.4499054 3.30273438-20.32373047.59532927-5.57433318.59532927-5.57433318 1.69726562-6.67626953.37476498-2.47989015.70575979-4.94795193 1-7.4375.86723508-7.29697016.86723508-7.29697016 2-9.5625.04022391-2.3329866.04320247-4.66706666 0-7h2c.13277344-1.21558594.26554688-2.43117188.40234375-3.68359375.17815716-1.58466109.356555-3.16929515.53515625-4.75390625.13051758-1.20366211.13051758-1.20366211.26367188-2.43164062.68554687-6.01757813.68554687-6.01757813 1.79882812-7.13085938.07148199-1.35243917.08399454-2.70834367.0625-4.0625-.0309375-1.9490625-.0309375-1.9490625-.0625-3.9375h2c.13277344-1.14339844.26554688-2.28679687.40234375-3.46484375.17815935-1.49091245.35655707-2.98179643.53515625-4.47265625.13051758-1.13211914.13051758-1.13211914.26367188-2.28710938.68554687-5.66210937.68554687-5.66210937 1.79882812-6.77539062.04063832-1.66617115.042721-3.33388095 0-5-.99 0-1.98 0-3 0 0-.66 0-1.32 0-2-3.3-.33-6.6-.66-10-1 0-.66 0-1.32 0-2-.59167969-.10957031-1.18335938-.21914062-1.79296875-.33203125-6.72181859-1.3487499-6.72181859-1.3487499-9.58203125-3.23046875-4.23737659-2.32046813-8.86371274-2.19568331-13.625-2.4375 0-.66 0-1.32 0-2-.87011719-.18175781-.87011719-.18175781-1.7578125-.3671875-4.53034215-.97185558-8.85973943-2.11237133-13.2421875-3.6328125-1.68608963-.50473557-3.37372401-1.00432681-5.0625-1.5-3.401382-1.01081189-6.64337574-2.1823503-9.9375-3.5-2.4579738-.76266918-4.92542508-1.48906513-7.39453125-2.21484375-2.3677287-.71351345-4.704062-1.48312539-7.04296875-2.28515625-3.38565801-1.15256443-6.78832546-2.1018358-10.25-3-3.07312438-.81297335-5.52827916-1.61009141-8.375-3.0625-2.73821199-1.33997608-4.723898-1.85120058-7.6875-2.375-6.07801086-1.09257295-11.78713661-3.17616885-17.21484375-6.1328125-2.4159268-1.10362875-4.59543985-1.43316195-7.22265625-1.8046875-4.6786819-.78497193-8.50472785-2.13989631-12.765625-4.1796875-3.54228331-1.63594-7.23458933-2.59693137-11.05859375-3.33203125-4.40692685-.86239682-8.25636882-2.09284962-12.36328125-3.92578125-6.19142505-2.70026022-12.50062287-4.37014398-19.03857422-5.98754883-4.01053588-.99538501-7.76989618-2.08985275-11.58642578-3.69995117-2.52296196-.77749213-5.05780022-1.49866755-7.59765625-2.21875-2.40234375-.78125-2.40234375-.78125-4.4140625-1.8046875-2.23197082-1.09625286-4.30636654-1.60087418-6.73828125-2.1015625-1.19882812-.25136719-1.19882812-.25136719-2.421875-.5078125-.60328125-.12117188-1.2065625-.24234375-1.828125-.3671875zm-18 73c.103125 1.19625.20625 2.3925.3125 3.625.05800781.67289063.11601563 1.34578125.17578125 2.0390625.44431406 2.49142854.44431406 2.49142854 1.92578125 5.140625 1.74894805 3.52374263 2.69153901 6.88321489 3.6484375 10.6953125 1.15703692 4.57238686 2.40918532 9.03830715 3.9375 13.5.48702922 1.58093254.96655028 3.1642032 1.4375 4.75.25652344.86109375.51304688 1.7221875.77734375 2.609375.38865234 1.30710937.38865234 1.30710937.78515625 2.640625.49952508 1.66680907.99951923 3.33347764 1.5 5l4.5 15h2c-.020625 1.0725-.04125 2.145-.0625 3.25.0482984 2.89790424.19405885 5.03612141 1.0625 7.75h2c-.08765625.76570313-.1753125 1.53140625-.265625 2.3203125-.03253241 2.77327387-.03253241 2.77327387 2.03125 4.234375 1.22976562.65355469 1.22976562.65355469 2.484375 1.3203125.92296875.50917969 1.8459375 1.01835937 2.796875 1.54296875.97453125.52207031 1.9490625 1.04414063 2.953125 1.58203125 1.83797717 1.05444644 3.6711658 2.1172744 5.5 3.1875 1.49853516.87011719 1.49853516.87011719 3.02734375 1.7578125 4.2170634 2.47563935 8.37124051 5.05358427 12.53515625 7.6171875 5.80727606 3.57092248 11.63998975 7.02526379 17.6640625 10.22265625 2.1454786 1.14646709 4.24092619 2.35421463 6.3359375 3.58984375 2.66967597 1.7863538 2.66967597 1.7863538 4.9375 1.625-.54709943-4.46248568-1.68505686-7.73961184-3.8125-11.6875-2.92172577-5.62520214-5.17793314-11.30744139-7.1875-17.3125-.66 0-1.32 0-2 0-.04125-.9075-.0825-1.815-.125-2.75-.67241223-4.93771367-3.15636954-8.99753035-5.44140625-13.359375-1.63007903-3.28680784-2.62366484-6.32693779-3.43359375-9.890625-.66 0-1.32 0-2 0-.12076904-.87994629-.24153809-1.75989258-.3659668-2.66650391-.60498111-3.18075169-1.47778715-5.71697414-2.77856445-8.66943359-.42990234-.98226562-.85980469-1.96453125-1.30273437-2.9765625-.45052735-1.010625-.90105469-2.02125-1.36523438-3.0625-.65838867-1.50433594-.65838867-1.50433594-1.33007812-3.0390625-.86616298-1.96656318-1.7447263-3.92771814-2.63647461-5.8828125-.75536356-1.6723426-1.48239545-3.35820283-2.16259766-5.0625-2.38452103-5.60359188-5.35339286-7.5471069-10.87084961-9.890625-1.38240337-.62824716-2.76392218-1.2584445-4.14453125-1.890625-.67369629-.29970703-1.34739258-.59941406-2.04150391-.90820312-2.01853256-.95928311-3.90847796-2.03875056-5.82568359-3.18554688-3.00718451-2.00858337-3.00718451-2.00858337-6.17578125-1.765625 0-.66 0-1.32 0-2-2.22791998-1.12752649-4.45725887-2.25208139-6.6875-3.375-.62583984-.31710938-1.25167969-.63421875-1.89648438-.9609375-3.41966263-1.71878331-6.83608636-3.30875467-10.41601562-4.6640625zm244 19c-.23074219 1.1653125-.46148437 2.330625-.69921875 3.53125-.32923626 1.65628794-.65868147 3.31253436-.98828125 4.96875-.17644043.88840576-.35288086 1.77681152-.53466797 2.69213867-.99662997 4.99136149-2.02010178 9.97542578-3.08642578 14.95239258-2.1223597 9.93025644-4.0493928 19.71856773-5.2265625 29.80859375-.53043184 3.4767801-1.55913131 6.49999676-2.80078125 9.7734375-1.35004226 4.6219094-1.42912102 9.48549211-1.6640625 14.2734375 4.65513364-5.61826474 10-12.41554037 10-20h2c.26554688-.60328125.53109375-1.2065625.8046875-1.828125.35320312-.79921875.70640625-1.5984375 1.0703125-2.421875.34804687-.78890625.69609375-1.5778125 1.0546875-2.390625.68610039-1.51242567 1.41736931-3.00561872 2.203125-4.46875 1.07564418-1.99842836 1.07564418-1.99842836.8671875-4.890625h2c1.21989687-6.09948433.95686566-11.85479607 0-18-.33-.33-.66-.66-1-1-.228226-1.8499996-.39504938-3.70765514-.53515625-5.56640625-.08701172-1.12470703-.17402344-2.24941406-.26367187-3.40820313-.08701172-1.1840039-.17402344-2.36800781-.26367188-3.58789062-.09087891-1.18787109-.18175781-2.37574219-.27539062-3.59960938-.22477074-2.94567967-.44528134-5.89161736-.66210938-8.83789062-.66 0-1.32 0-2 0zm41 33v2c-.97066406.11214844-1.94132812.22429687-2.94140625.33984375-4.46684235.63812034-8.68927163 1.90514511-12.99609375 3.22265625-.77923828.23396484-1.55847656.46792969-2.36132812.70898438-1.90174375.57168983-3.80165414 1.14947253-5.70117188 1.72851562v2c-1.65 0-3.3 0-5 0-2.35910353 4.2637281-2.35910353 4.2637281-3 9-.66 0-1.32 0-2 0-.44730469.89460938-.89460938 1.78921875-1.35546875 2.7109375-10.64453125 21.2890625-10.64453125 21.2890625-11.78125 23.375-1.06885028 2.0198931-1.06885028 2.0198931-.86328125 4.9140625-.66 0-1.32 0-2 0-.33 1.65-.66 3.3-1 5 .99-.66 1.98-1.32 3-2 0-.66 0-1.32 0-2h2c0-.66 0-1.32 0-2l3-1c0-.66 0-1.32 0-2 .53109375-.20238281 1.0621875-.40476563 1.609375-.61328125 3.4328076-1.99125277 5.89957733-4.73140049 8.640625-7.57421875 4.07959155-4.16110414 8.18522107-8.15278335 12.63671875-11.91796875 3.50876154-3.14556257 6.78571793-6.52723361 10.07836914-9.89672852 3.83065007-3.89567171 3.83065007-3.89567171 6.03491211-4.99780273 0-.66 0-1.32 0-2 .58265625-.25523437 1.1653125-.51046875 1.765625-.7734375 2.44825723-1.34397337 4.05180748-2.84466546 5.984375-4.8515625.61359375-.63164062 1.2271875-1.26328125 1.859375-1.9140625.45890625-.48210937.9178125-.96421875 1.390625-1.4609375-3.13349732-1.04449911-3.98968256-.93423645-7 0z" fill="#fbfdfb"/><path d="m0 0c6.41668384 1.46400068 12.12339203 2.99640037 18 6 2.20770058.579069 4.41436432 1.04621061 6.65625 1.47265625 2.86034287.64357715 5.5647359 1.59206639 8.34375 2.52734375 1.3273933.38980612 2.65698211.77218708 3.98828125 1.1484375 6.90647936 1.95572596 13.54797821 3.89336483 20.03515625 7.01171875 3.52122924 1.49617448 7.23975592 2.09524022 10.9765625 2.83984375 3.98930678.99732669 7.55587355 2.23153521 11.25 4 3.4222021 1.58305948 6.52647478 2.41754913 10.25 3 4.52965172.71189241 8.1432127 2.01542247 12.2578125 3.9921875 3.94155772 1.77164093 8.09086719 2.83806834 12.2421875 4.0078125 1.75104873.51729652 3.50107046 1.03808335 5.25 1.5625.76828125.22816406 1.5365625.45632812 2.328125.69140625 1.76886085.54492326 3.52823236 1.12092521 5.28125 1.71484375 4.52030915 1.48428062 9.11165707 2.69007119 13.703125 3.93359375 3.36878526 1.07571439 6.28792854 2.50770752 9.4375 4.09765625 2.26378211.64999811 2.26378211.64999811 4.4375 1 4.13995606.8293735 7.6770006 2.33478597 11.5625 4 2.29967435.57690792 4.60654526 1.05874649 6.9296875 1.53125 2.48206409.56197677 4.72490957 1.49149878 7.0703125 2.46875 1.65919896.36871088 3.3247643.71281674 5 1v2c.73605469.03738281 1.47210938.07476562 2.23046875.11328125 5.51337202.3714425 9.10083322.81520689 13.76953125 3.88671875 2.97026739.82985324 5.96856578 1.43862329 9 2v2l10 1v2h3c.042721 1.66611905.04063832 3.33382885 0 5-.33.33-.66.66-1 1-.39993686 2.68862664-.75134543 5.36352217-1.0625 8.0625-.09087891.75861328-.18175781 1.51722656-.27539062 2.29882812-.22454678 1.87910198-.44381916 3.75883283-.66210938 5.63867188-.66 0-1.32 0-2 0 .0309375 1.9490625.0309375 1.9490625.0625 3.9375.02149454 1.35415633.00898199 2.71006083-.0625 4.0625-.33.33-.66.66-1 1-.400383 2.85528607-.7518227 5.69736487-1.0625 8.5625-.09087891.80630859-.18175781 1.61261719-.27539062 2.44335938-.22458387 1.99761439-.44384174 3.99582622-.66210938 5.99414062-.66 0-1.32 0-2 0 .04125.969375.0825 1.93875.125 2.9375.00758346 3.76139801-.73033173 7.13623873-1.6171875 10.77734375-.50298062 2.2634128-.81484858 4.48186063-1.0703125 6.78515625-.4375 3.5-.4375 3.5-1.4375 4.5-.3321116 2.5421633-.61653361 5.07516682-.875 7.625-2.47766416 22.72766416-2.47766416 22.72766416-5.125 25.375-.39666227 2.18019479-.74315237 4.3696463-1.0625 6.5625-.17660156 1.19753906-.35320312 2.39507812-.53515625 3.62890625-.13277344.92683594-.26554688 1.85367188-.40234375 2.80859375-3.71268094-1.54127351-5.98115698-3.80843234-8.75-6.6875-4.80689814-4.90571836-9.79064409-9.46275458-15.08984375-13.828125-2.97485497-2.4736212-5.63000213-4.93541489-8.09765625-7.921875-3.30557327-3.98948498-7.11296386-7.22799482-11.0625-10.5625-1.39880814-1.20488834-2.79469316-2.41317936-4.1875-3.625-.61230469-.52851563-1.22460938-1.05703125-1.85546875-1.6015625-2.40473626-2.17914224-4.67527502-4.46545419-6.95703125-6.7734375-10.40977567-10.64785114-10.40977567-10.64785114-21.4296875-20.6484375-2.31364817-1.99134892-4.41272638-4.19397638-6.5703125-6.3515625-.763125-.556875-1.52625-1.11375-2.3125-1.6875-.8353125-.6496875-.8353125-.6496875-1.6875-1.3125 0-.66 0-1.32 0-2-.66 0-1.32 0-2 0-1.71350657-1.61847175-3.37298505-3.2946033-5-5-6.67865333-6.83313652-6.67865333-6.83313652-13.75-13.25-4.62251736-3.94605141-8.82496005-8.29930843-13.09643555-12.6159668-3.72639021-3.75057119-7.52435101-7.33914893-11.55981445-10.7590332-2.31984636-2.00143607-4.42793201-4.20918201-6.59375-6.375-1.86616379-1.57604589-3.74467931-3.13269394-5.64453125-4.66796875-.44730469-.43957031-.89460938-.87914062-1.35546875-1.33203125 0-.66 0-1.32 0-2-.84304687-.34998047-.84304687-.34998047-1.703125-.70703125-2.86421642-1.61233951-4.76939521-3.61232495-7.046875-5.98046875-2.89538941-2.95842401-5.76838019-5.83710721-8.9375-8.5-4.16069071-3.55056906-7.96639795-7.42929427-11.8125-11.3125-5.00541727-5.04885751-10.05258541-9.92601053-15.5-14.5-1.67294757-1.43018546-3.33948251-2.8679012-5-4.3125-.763125-.65613281-1.52625-1.31226562-2.3125-1.98828125-1.6875-1.69921875-1.6875-1.69921875-1.6875-3.69921875z" fill="#3cbd57" transform="translate(20 74)"/><path d="m0 0c4.80252817 3.32764008 8.75518175 6.67417754 12.4375 11.20703125 3.36612008 3.86262279 7.41972641 7.07239419 11.40625 10.2734375 1.41466495 1.13773762 2.7900126 2.32407352 4.15625 3.51953125v2h2v2c.58555664.25885986 1.17111328.51771973 1.77441406.78442383 2.39442554 1.30779341 3.93651923 2.71293718 5.83496094 4.66479492.67289063.68384766 1.34578125 1.36769531 2.0390625 2.07226563.69351563.71478515 1.38703125 1.42957031 2.1015625 2.16601562 5.69898046 5.84524706 11.47994697 11.49775731 17.86279297 16.60229492 2.72012443 2.17689002 5.0509867 4.41034178 7.26220703 7.08520508 2.69228019 3.23491031 5.62881954 5.92620019 8.82421875 8.65625 2.79727123 2.39359032 5.55721216 4.82657065 8.30078125 7.28125.94875.84175781 1.8975 1.68351562 2.875 2.55078125 2.125 2.13671875 2.125 2.13671875 2.125 4.13671875.58555664.25885986 1.17111328.51771973 1.77441406.78442383 2.39442554 1.30779341 3.93651923 2.71293718 5.83496094 4.66479492 1.00933594 1.02577148 1.00933594 1.02577148 2.0390625 2.07226563.69351563.71478515 1.38703125 1.42957031 2.1015625 2.16601562 4.69163288 4.81204551 9.42612054 9.4576113 14.53979492 13.82324219 2.35212425 2.04824524 4.50533332 4.28438605 6.71020508 6.48925781 1.15923029 1.00861104 2.32641351 2.00813012 3.5 3 2.99610277 2.54373715 5.84226524 5.10065298 8.5 8v2l1.671875.71875c2.89587211 1.59370143 5.12324537 3.57042273 7.578125 5.78125l2.703125 2.40625c2.046875 2.09375 2.046875 2.09375 2.046875 4.09375.58555664.25885986 1.17111328.51771973 1.77441406.78442383 2.39442554 1.30779341 3.93651923 2.71293718 5.83496094 4.66479492 1.00933594 1.02577148 1.00933594 1.02577148 2.0390625 2.07226563.69351563.71478515 1.38703125 1.42957031 2.1015625 2.16601562 4.68564294 4.80590183 9.41305533 9.44633407 14.52148438 13.80493164 2.3568298 2.05556837 4.51794106 4.2969938 6.72851562 6.50756836.763125.556875 1.52625 1.11375 2.3125 1.6875l1.6875 1.3125v2l1.625.625c3.29478009 1.90750426 5.96863628 4.42319384 8.375 7.375v2c-37.95 0-75.9 0-115 0-2.38459743-4.76919487-4.38898998-8.91067767-6.16015625-13.8125-2.11942279-5.52035704-4.73046888-10.85992875-7.2734375-16.1953125-.45503906-.96679688-.91007812-1.93359375-1.37890625-2.9296875-.41894531-.87527344-.83789062-1.75054687-1.26953125-2.65234375-.91796875-2.41015625-.91796875-2.41015625-.91796875-6.41015625-.66 0-1.32 0-2 0-.37511719-.96679688-.75023437-1.93359375-1.13671875-2.9296875-3.46883781-8.85759327-3.46883781-8.85759327-7.55078125-17.4453125-1.48886825-2.87005105-2.69379287-5.5932991-3.625-8.6875-1.44902261-4.69885368-3.55963784-9.01791077-5.6875-13.4375-2.40489898-5.0032647-4.62492485-9.87112175-6.23046875-15.1953125-2.52795317-7.57102727-5.99024768-14.90526249-9.640625-21.9921875-12.12890625-24.84537197-12.12890625-24.84537197-12.12890625-31.3125-.66 0-1.32 0-2 0-.81974263-2.03876949-1.6304807-4.08116075-2.4375-6.125-.45246094-1.13695313-.90492187-2.27390625-1.37109375-3.4453125-1.10180552-3.17175491-1.75236399-6.10911498-2.19140625-9.4296875-.66 0-1.32 0-2 0-2.54521255-4.62765919-3.8545847-8.8896856-5-14z" fill="#3cbd57" transform="translate(16 81)"/><path d="m0 0h3v2c.9075.04125 1.815.0825 2.75.125 6.04400501.98879428 11.54166854 2.89102723 16.25 6.875 2.95368321 6.33130683 4.26913706 12.98897961 4 20h2c1.905247 5.10334017 3.42589023 9.46342706 3 15h2c.495 4.95.495 4.95 1 10h2c3.44419134 10.37357631 3.44419134 10.37357631 3 16h2c.25394531.90621094.50789063 1.81242187.76953125 2.74609375 2.29633922 8.12749276 4.74912172 16.14235738 7.609375 24.08984375 2.8105028 7.83341477 5.41093287 15.63874891 7.609375 23.671875.7331036 2.53048114 1.50710252 4.99808899 2.3671875 7.484375.23130615.6688623.4626123 1.33772461.70092773 2.02685547.65529388 1.87154328 1.32252129 3.73889585 1.99047852 5.60595703.93507934 3.3111006 1.14069483 5.95706093.953125 9.375h2c.83830973 2.76941606 1.67082034 5.54035069 2.5 8.3125.23847656.78568359.47695313 1.57136719.72265625 2.38085938.22558594.75732421.45117187 1.51464843.68359375 2.29492187.20947266.69649658.41894531 1.39299316.63476562 2.1105957.45898438 1.90112305.45898438 1.90112305.45898438 4.90112305-6.5961503 2.23271754-13.19861136 4.38583607-19.8828125 6.33984375-2.26242887.6678463-2.26242887.6678463-4.9296875 1.84765625-2.51396713.93375922-4.52696185.96453075-7.1875.8125v2c-1.5811292.50692692-3.16501383 1.00526443-4.75 1.5-1.32257813.41765625-1.32257813.41765625-2.671875.84375-2.578125.65625-2.578125.65625-6.578125.65625-.11593506-1.08007324-.23187012-2.16014648-.35131836-3.27294922-.430362-3.99977536-.86577617-7.9989872-1.30273437-11.99804687-.18855874-1.73227176-.37573932-3.4646941-.56152344-5.19726563-.26698082-2.48754924-.53888183-4.97451827-.81176758-7.46142578-.08233383-.77713348-.16466766-1.55426697-.24949646-2.35494995-.38607415-3.98429356-.38607415-3.98429356-1.72315979-7.71536255-.31120284-2.55877893-.50964666-5.11851612-.71875-7.6875-.15261047-2.33518455-.15261047-2.33518455-1.28125-4.3125-1.08415394-7.34815446-1.1031823-14.58233911-1-22-.66 0-1.32 0-2 0-.08302368-1.0372522-.08302368-1.0372522-.16772461-2.09545898-.2519107-3.11441316-.5107489-6.22821197-.76977539-9.34204102-.13051758-1.63291992-.13051758-1.63291992-.26367188-3.29882812-.08701171-1.03447266-.17402343-2.06894532-.26367187-3.13476563-.07855225-.9583374-.15710449-1.9166748-.23803711-2.90405273-.06378985-2.19395241-.06378985-2.19395241-1.29711914-3.22485352-.21385261-1.37630493-.37027126-2.76167197-.5-4.1484375-.0825-.84046875-.165-1.6809375-.25-2.546875-.0825-.88429688-.165-1.76859375-.25-2.6796875-.16350864-1.73727929-.33005151-3.47427636-.5-5.2109375-.0721875-.7739209-.144375-1.5478418-.21875-2.34521484-.24220559-2.26096781-.24220559-2.26096781-1.28125-5.06884766-.30486441-3.12486016-.50841216-6.25028111-.71875-9.3828125.00378015-2.54132611.00378015-2.54132611-1.28125-3.6171875-.21547984-1.69241461-.37099958-3.39255698-.5-5.09375-.0825-1.02996094-.165-2.05992188-.25-3.12109375-.16666667-2.19010417-.33333333-4.38020833-.5-6.5703125-.0825-1.02996094-.165-2.05992188-.25-3.12109375-.0721875-.95197266-.144375-1.90394531-.21875-2.88476562-.04858663-2.18036623-.04858663-2.18036623-1.28125-3.20898438-.21394248-1.35274047-.37031775-2.71472459-.5-4.078125-.12375-1.24716797-.12375-1.24716797-.25-2.51953125-.0825-.87527344-.165-1.75054687-.25-2.65234375-.67494213-7.42263355-.67494213-7.42263355-2-14.75z" fill="#3ebd58" transform="translate(234 23)"/><path d="m0 0c4.24292532 1.60630825 8.27025107 3.5768162 12.3125 5.625.64517578.32484375 1.29035156.6496875 1.95507812.984375 1.57839729.79504456 3.15553882 1.59258134 4.73242188 2.390625v2c.73089844.10957031 1.46179688.21914062 2.21484375.33203125 2.94816663.70706381 4.81023761 1.71967095 7.34765625 3.35546875 3.83323683 2.4252263 7.65872295 4.30930747 11.8125 6.125 3.82676411 1.9036199 6.22457274 3.17467435 8 7.125.56386774 1.68021195 1.10210543 3.36908915 1.625 5.0625.98425319 2.52860626 1.98342799 5.04710413 3 7.5625.25652344.65129883.51304688 1.30259766.77734375 1.97363281 1.37725532 3.48021826 2.85008493 6.8421364 4.59765625 10.15136719 1.625 3.3125 1.625 3.3125 1.625 7.3125h2c.23074219.66644531.46148437 1.33289063.69921875 2.01953125 2.1361741 6.03701377 4.53424305 11.81637406 7.34765625 17.5703125.953125 2.41015625.953125 2.41015625.953125 6.41015625h2c.37511719.95519531.75023438 1.91039062 1.13671875 2.89453125 2.7985577 7.08183938 5.67284146 14.06870692 8.98046875 20.93359375.8828125 2.171875.8828125 2.171875.8828125 5.171875-4.20982521-1.25372897-7.54662138-2.80438713-11.1875-5.25-4.60547765-3.01415407-9.29564113-5.69803403-14.14453125-8.296875-4.30689281-2.34577471-8.47786908-4.90643021-12.66796875-7.453125-2.56062951-1.54478469-5.12396174-3.08504865-7.6875-4.625-.6177832-.37229736-1.23556641-.74459473-1.87207031-1.12817383-4.11501589-2.47373817-8.26444199-4.87739541-12.44042969-7.24682617 0-1.65 0-3.3 0-5-.66 0-1.32 0-2 0-1.17571451-3.67410785-1.07366746-7.16929183-1-11-.66 0-1.32 0-2 0-.26554687-1.02480469-.53109375-2.04960937-.8046875-3.10546875-.35660278-1.36072114-.71338301-2.72139578-1.0703125-4.08203125-.17402344-.67353516-.34804688-1.34707031-.52734375-2.04101562-.74527401-2.82928097-1.52130219-5.58074664-2.609375-8.29882813-1.76506392-4.41614807-2.73223861-9.07818712-3.890625-13.68359375-.77560632-2.67735989-1.55500226-4.97919135-2.66796875-7.49609375-1.15225094-2.65395504-1.88100574-4.79216978-2.3671875-7.60546875-.88275073-4.40620875-2.44737515-8.32256376-4.2578125-12.42578125-.8046875-2.26171875-.8046875-2.26171875-.8046875-6.26171875z" fill="#3fbd59" transform="translate(2 147)"/><path d="m0 0 4 1v2c.69222656.25144775 1.38445312.50289551 2.09765625.76196289 3.32149431 1.4168319 6.25973676 3.16095553 9.33984375 5.04663086.60255615.36738785 1.2051123.7347757 1.82592773 1.11329651 1.91439455 1.16830818 3.82552974 2.34182832 5.73657227 3.51560974 1.28363775.78485927 2.56748995 1.56936791 3.8515625 2.35351562 2.36464108 1.44434596 4.7277366 2.89110226 7.08984375 4.33959961 1.96470149 1.20080774 3.95072804 2.36775824 5.9609375 3.49072266.69222656.4549585 1.38445312.90991699 2.09765625 1.37866211v2c.53625.0825 1.0725.165 1.625.25 3.20404327 1.01180314 5.60877725 2.8666143 8.375 4.75l3 1v2c.71841064.2671582 1.43682129.53431641 2.17700195.80957031 2.85547152 1.20412342 5.35345795 2.61369851 7.9909668 4.23730469.97646484.598125 1.95292969 1.19625 2.95898437 1.8125 1.00998047.62390625 2.01996094 1.2478125 3.06054688 1.890625 1.99330675 1.22425607 3.98679491 2.44821683 5.98046875 3.671875.96728027.59748047 1.93456055 1.19496094 2.93115234 1.81054688 1.9432345 1.18406141 3.89964312 2.34675289 5.86816407 3.48828124 1.37164306.79567383 1.37164306.79567383 2.77099609 1.60742188.82153564.46825195 1.64307129.93650391 2.48950195 1.41894531.58483155.4134668 1.16966309.8269336 1.7722168 1.25292969v2l2.1875.25c3.43142701.9150472 5.15131866 2.42146632 7.8125 4.75.928125.7425 1.85625 1.485 2.8125 2.25 1.0828125.86625 1.0828125.86625 2.1875 1.75-5.80319797-.42986652-10.31299675-1.80229491-15.65625-4.078125-2.75030065-1.08178492-5.40848863-1.61290012-8.34375-1.921875 0-.66 0-1.32 0-2-.721875.04125-1.44375.0825-2.1875.125-3.102474-.13788773-4.93389387-.97355755-7.8125-2.125-2.60059923-.73840849-5.19615594-1.4490068-7.8125-2.125-.69287109-.18175781-1.38574219-.36351562-2.09960938-.55078125-1.69521723-.44426383-3.39145284-.88463865-5.08789062-1.32421875 0-.66 0-1.32 0-2-1.03125-.061875-2.0625-.12375-3.125-.1875-9.48423906-1.29713394-17.80444338-3.71398262-24-11.3125-1.31268194-1.81834541-2.6053717-3.6513362-3.875-5.5-1.10988281-1.34578125-1.10988281-1.34578125-2.2421875-2.71875-1.7578125-2.28125-1.7578125-2.28125-1.7578125-4.28125-.66 0-1.32 0-2 0-2.32019297-3.19026533-4.34643078-6.41726669-6-10-.66 0-1.32 0-2 0-1.5020459-1.8237021-2.92716169-3.71113767-4.3125-5.625-3.10394761-4.2450773-6.25525857-8.38917124-9.6875-12.375z" fill="#44bd5d" transform="translate(111 62)"/><path d="m0 0c7.80237154 1.11462451 7.80237154 1.11462451 11.4375 3.5625 5.10834931 3.2564746 10.40282221 5.92068242 15.85327148 8.54516602 4.14654839 2.0212437 7.92636109 4.24902599 11.70922852 6.89233398-1.41292095 4.8274799-3.42974154 8.7162359-6 13-5.43624201-.95637591-9.98974711-2.3297361-14.8515625-4.93359375-2.41675353-1.19958857-4.85513355-2.10391187-7.3984375-3.00390625-4.11879653-1.46113732-8.1966891-2.98996879-12.25-4.625-.9796875-.39316406-1.959375-.78632813-2.96875-1.19140625-2.53125-1.24609375-2.53125-1.24609375-5.53125-4.24609375z" fill="#42bc5b" transform="translate(246 1)"/><path d="m0 0c-1.45217676 1.50596108-2.91192861 3.00462104-4.375 4.5-1.21816406 1.25296875-1.21816406 1.25296875-2.4609375 2.53125-2.1640625 1.96875-2.1640625 1.96875-4.1640625 1.96875v2c-1.43359375 1.41015625-1.43359375 1.41015625-3.4375 3.0625-3.17007217 2.68924994-6.14831525 5.47263377-9.0625 8.4375-2.6877846 2.7244154-5.39816863 5.33260312-8.3125 7.8125-4.30675011 3.67161323-8.2305943 7.70138008-12.15161133 11.77661133-1.30916322 1.33991179-2.66884946 2.63007809-4.03588867 3.91088867-.66 0-1.32 0-2 0-.33.99-.66 1.98-1 3-.66 0-1.32 0-2 0v2c-.66 0-1.32 0-2 0-.66 1.32-1.32 2.64-2 4-1-2-1-2 0-5h2c.0825-.845625.165-1.69125.25-2.5625.70287485-3.22150974 1.73427306-5.38925187 3.4375-8.17578125 1.7869189-3.07924418 3.35727541-6.2608591 4.9375-9.44921875.30115723-.60650391.60231445-1.21300781.91259766-1.83789062.82194858-1.65763448 1.64223468-3.31609301 2.46240234-4.97460938.66580742-1.33376261 1.33201091-2.6673287 2-4h2c.12375-.928125.2475-1.85625.375-2.8125.625-3.1875.625-3.1875 2.625-6.1875 2.625-.1875 2.625-.1875 5 0 0-.66 0-1.32 0-2 2.68574382-.81871381 5.3733572-1.63008988 8.0625-2.4375 1.12825195-.34514648 1.12825195-.34514648 2.27929688-.69726562 4.55541256-1.36070765 8.93405665-2.31941666 13.65820312-2.86523438 0-.66 0-1.32 0-2 3.01031744-.93423645 3.86650268-1.04449911 7 0z" fill="#47bd5f" transform="translate(294 199)"/><path d="m0 0h2c.08302368 1.1281311.08302368 1.1281311.16772461 2.27905273.25187256 3.38651956.51072878 6.77246926.76977539 10.15844727.08701172 1.18400391.17402344 2.36800781.26367188 3.58789062.08701171 1.12470704.17402343 2.24941407.26367187 3.40820313.07855225 1.04212646.15710449 2.08425293.23803711 3.15795898.03998793 2.35638622.03998793 2.35638622 1.29711914 3.40844727.2647362 2.46498814.46877097 4.90290535.625 7.375.0515625.68578125.103125 1.3715625.15625 2.078125.21146869 3.19690906.2422814 5.47628079-.78125 8.546875-.66 0-1.32 0-2 0-.04125.804375-.0825 1.60875-.125 2.4375-1.21482817 4.94608612-3.50865132 8.74730482-6.875 12.5625-3.375 1.5625-3.375 1.5625-6 2-.26155712-7.33762937.47638206-14.16669482 1.8125-21.375.18232178-1.01586182.36464355-2.03172363.55249023-3.07836914 1.08691243-5.9387065 2.33625376-11.78991213 3.90844727-17.62084961 1.54968544-6.24039998 2.59440969-12.59857263 3.7265625-18.92578125z" fill="#47bd60" transform="translate(246 166)"/><path d="m0 0c6.67311557 6.5209217 12.48126359 13.67896363 17.75 21.375 2.47658468 3.6126327 5.06520247 6.59944234 8.25 9.625 1.28540971 1.38242176 2.55541985 2.77926793 3.8125 4.1875.60457031.67417969 1.20914063 1.34835938 1.83203125 2.04296875 1.35546875 1.76953125 1.35546875 1.76953125 1.35546875 3.76953125-2.82037644-.63535953-5.61609846-1.31830387-8.41015625-2.0625-2.44740115-.6391472-4.91661822-1.19877251-7.3984375-1.6875-3.9699741-.99146075-6.8418991-1.8808364-10.19140625-4.25-1.64468498-4.09837718-2.22447728-7.75195412-2.62890625-12.1171875-.30830976-3.22589365-.71677852-5.40795432-1.99609375-8.3203125-1.62373916-4.20696056-2.07497657-8.09318544-2.375-12.5625z" fill="#49bd61" transform="translate(103 63)"/><path d="m0 0c4.61989287.27999351 6.82750744 2.34192814 10.1015625 5.30859375 1.96380392 1.74964423 3.9886419 3.35479043 6.0859375 4.94140625.63292969.47953125 1.26585937.9590625 1.91796875 1.453125 1.87433828 1.36397331 1.87433828 1.36397331 4.0703125 2.28125 1.82421875 1.015625 1.82421875 1.015625 2.82421875 4.015625-5.57258427-.48017733-10.62492413-1.37733559-16-3-1.99488234-.36270588-3.9937811-.70640699-6-1 0-.66 0-1.32 0-2-2.31 0-4.62 0-7 0 0-3.86790003.27370354-5.01319413 2-8.25l1.125-2.140625z" fill="#4dbd65" transform="translate(290 25)"/><path d="m0 0h2c.495 1.485.495 1.485 1 3-38.94 0-77.88 0-118 0 0-.33 0-.66 0-1l115-1c0-.33 0-.66 0-1z" fill="#e5f5e8" transform="translate(212 266)"/><path d="m0 0h117v1c-38.61 0-77.22 0-117 0 0-.33 0-.66 0-1z" fill="#fefefe" transform="translate(97 269)"/><path d="m0 0c-38.28 0-76.56 0-116 0 0-.33 0-.66 0-1 14.82908889-.1771676 29.65826868-.34284767 44.48763847-.49477577 6.88521608-.07080875 13.77035254-.14540526 20.65542794-.22885704 6.63939548-.08046341 13.27884717-.15045302 19.91843032-.21393967 2.53827494-.02600511 5.07651587-.05557229 7.61470795-.08869171 3.54394418-.04564567 7.0877958-.07883989 10.63190079-.10898972 1.05879364-.01654129 2.11758728-.03308258 3.20846557-.05012512 1.44294434-.00849724 1.44294434-.00849724 2.91503907-.01716614 1.25824742-.01382689 1.25824742-.01382689 2.54191398-.02793312 2.02647591.23047829 2.02647591.23047829 4.02647591 2.23047829z" fill="#63c177" transform="translate(213 268)"/><path d="m0 0v2c-.66 0-1.32 0-2 0-.1546875 1.051875-.1546875 1.051875-.3125 2.125-1.53545638 6.42099942-5.47082211 12.15363616-8.6875 17.875-1.05579601-3.257243-.91586439-5.48507994-.1875-8.8125.18949219-.87011719.37898437-1.74023438.57421875-2.63671875.7740339-3.21938939 1.64924139-6.38322171 2.61328125-9.55078125h3c2-1 2-1 5-1z" fill="#58bf6d" transform="translate(243 224)"/></svg>